<?xml version="1.0" encoding="utf-8"?>
<!-- Generator: Adobe Illustrator 16.0.0, SVG Export Plug-In . SVG Version: 6.00 Build 0)  -->
<!DOCTYPE svg PUBLIC "-//W3C//DTD SVG 1.1//EN" "http://www.w3.org/Graphics/SVG/1.1/DTD/svg11.dtd">
<svg version="1.1" xmlns="http://www.w3.org/2000/svg" xmlns:xlink="http://www.w3.org/1999/xlink" x="0px" y="0px" width="1000px"
	 height="1000px" viewBox="0 0 1000 1000" enable-background="new 0 0 1000 1000" xml:space="preserve">
<g id="Layer_1">
	<path fill="#00C6F5" d="M-1091.033,362l-187.336,432.069l-8.666,20.351c-25.788,51.256-74.45,90.58-116.675,97.58h-612.241
		l62.295-144h521.689c42.398-5,90.993-45.87,116.778-97.127l8.755-19.951L-1181.466,362H-1091.033z"/>
	<linearGradient id="SVGID_1_" gradientUnits="userSpaceOnUse" x1="-2069.854" y1="361.5" x2="-1144.9395" y2="361.5">
		<stop  offset="0" style="stop-color:#00C6F5"/>
		<stop  offset="1" style="stop-color:#00FFF3"/>
	</linearGradient>
	<path fill="url(#SVGID_1_)" d="M-1144.939,88l-195.983,450.873c-25.788,51.256-74.294,93.127-116.69,96.127h-612.241
		l184.812-423.453c0,0,0,0.196-0.005,0.172l13.988-32.604C-1842.535,127.198-1791.104,88-1748.661,88h401.795l-146.977,338.099
		l79.415-50.672l51.947,50.624L-1216.377,88H-1144.939z"/>
</g>
<g id="Layer_2">
	<rect x="-1040" fill="#002130" width="1000" height="1000"/>
	<path fill="#FFFFFF" d="M2028.967,362l-187.336,432.069l-8.666,20.351c-25.788,51.256-74.45,90.58-116.675,97.58h-612.241
		l62.295-144h521.689c42.398-5,90.993-45.87,116.778-97.127l8.755-19.951L1938.534,362H2028.967z"/>
	<path fill="#FFFFFF" d="M1975.061,88l-195.983,450.873c-25.788,51.256-74.294,93.127-116.69,96.127h-612.24l184.811-423.453
		c0,0,0,0.196-0.004,0.172l13.987-32.604C1277.465,127.198,1328.896,88,1371.34,88h401.795l-146.977,338.099l79.415-50.672
		l51.947,50.624L1903.623,88H1975.061z"/>
</g>
<g id="Layer_3">
	<path fill="#00C6F5" d="M-46.26,363l-187.336,432.172l-8.666,20.299C-268.05,866.727-316.712,906-358.937,913h-612.241l62.295-144
		h521.689c42.398-5,90.993-45.768,116.778-97.025l8.755-20.002L-136.692,363H-46.26z"/>
	<linearGradient id="SVGID_2_" gradientUnits="userSpaceOnUse" x1="-1025.0801" y1="362.5" x2="-100.166" y2="362.5">
		<stop  offset="0" style="stop-color:#00C6F5"/>
		<stop  offset="1" style="stop-color:#00FFF3"/>
	</linearGradient>
	<path fill="url(#SVGID_2_)" d="M-100.166,89l-195.983,450.873C-321.938,591.129-370.443,633-412.84,636h-612.24l184.811-423.351
		c0,0,0,0.247-0.004,0.223l13.987-32.68C-797.762,128.275-746.33,89-703.887,89h401.795l-146.977,338.201l79.415-50.621
		l51.947,50.547L-171.604,89H-100.166z"/>
</g>
<g id="Layer_4">
	<path d="M988.967,362L801.631,794.069l-8.666,20.351C767.177,865.676,718.515,905,676.29,912H64.049l62.295-144h521.689
		c42.398-5,90.993-45.87,116.778-97.127l8.755-19.951L898.534,362H988.967z"/>
	<path d="M935.061,88L739.077,538.873C713.289,590.129,664.783,632,622.387,635H10.146l184.811-423.453c0,0,0,0.196-0.004,0.172
		l13.987-32.604C237.465,127.198,288.896,88,331.34,88h401.795L586.158,426.099l79.415-50.672l51.947,50.624L863.623,88H935.061z"/>
</g>
<g id="Layer_5">
</g>
<g id="Layer_6">
	<g>
	</g>
	<g>
	</g>
	<g>
	</g>
	<g>
	</g>
	<g>
	</g>
	<g>
	</g>
	<g>
	</g>
	<g>
	</g>
	<g>
	</g>
	<g>
	</g>
	<g>
	</g>
	<g>
	</g>
	<g>
	</g>
	<g>
	</g>
	<g>
	</g>
</g>
</svg>
