<?xml version="1.0" encoding="utf-8"?>
<!-- Generator: Adobe Illustrator 16.0.0, SVG Export Plug-In . SVG Version: 6.00 Build 0)  -->
<!DOCTYPE svg PUBLIC "-//W3C//DTD SVG 1.1//EN" "http://www.w3.org/Graphics/SVG/1.1/DTD/svg11.dtd">
<svg version="1.1" xmlns="http://www.w3.org/2000/svg" xmlns:xlink="http://www.w3.org/1999/xlink" x="0px" y="0px" width="1000px"
	 height="1000px" viewBox="0 0 1000 1000" enable-background="new 0 0 1000 1000" xml:space="preserve">
<g id="Layer_1">
	<path fill="#00C6F5" d="M988.967,362L801.631,794.069l-8.666,20.351C767.177,865.676,718.515,905,676.29,912H64.049l62.295-144
		h521.689c42.398-5,90.993-45.87,116.778-97.127l8.755-19.951L898.534,362H988.967z"/>
	<linearGradient id="SVGID_1_" gradientUnits="userSpaceOnUse" x1="10.146" y1="361.5" x2="935.0605" y2="361.5">
		<stop  offset="0" style="stop-color:#00C6F5"/>
		<stop  offset="1" style="stop-color:#00FFF3"/>
	</linearGradient>
	<path fill="url(#SVGID_1_)" d="M935.061,88L739.077,538.873C713.289,590.129,664.783,632,622.387,635H10.146l184.812-423.453
		c0,0,0,0.196-0.005,0.172l13.988-32.604C237.465,127.198,288.896,88,331.339,88h401.795L586.158,426.099l79.415-50.672
		l51.947,50.624L863.623,88H935.061z"/>
</g>
<g id="Layer_2">
	<rect x="1040" fill="#002130" width="1000" height="1000"/>
	<path fill="#FFFFFF" d="M4108.967,362l-187.336,432.069l-8.666,20.351c-25.788,51.256-74.45,90.58-116.675,97.58h-612.241
		l62.295-144h521.689c42.398-5,90.993-45.87,116.778-97.127l8.755-19.951L4018.534,362H4108.967z"/>
	<path fill="#FFFFFF" d="M4055.061,88l-195.983,450.873c-25.788,51.256-74.294,93.127-116.69,96.127h-612.24l184.811-423.453
		c0,0,0,0.196-0.004,0.172l13.987-32.604C3357.465,127.198,3408.896,88,3451.34,88h401.795l-146.977,338.099l79.415-50.672
		l51.947,50.624L3983.623,88H4055.061z"/>
</g>
<g id="Layer_3">
	<path fill="#00C6F5" d="M2033.74,363l-187.336,432.172l-8.666,20.299C1811.95,866.727,1763.288,906,1721.063,913h-612.241
		l62.295-144h521.689c42.398-5,90.993-45.768,116.778-97.025l8.755-20.002L1943.308,363H2033.74z"/>
	<linearGradient id="SVGID_2_" gradientUnits="userSpaceOnUse" x1="1054.9199" y1="362.5" x2="1979.834" y2="362.5">
		<stop  offset="0" style="stop-color:#00C6F5"/>
		<stop  offset="1" style="stop-color:#00FFF3"/>
	</linearGradient>
	<path fill="url(#SVGID_2_)" d="M1979.834,89l-195.983,450.873C1758.063,591.129,1709.557,633,1667.16,636h-612.24l184.811-423.351
		c0,0,0,0.247-0.004,0.223l13.987-32.68C1282.238,128.275,1333.67,89,1376.113,89h401.795l-146.977,338.201l79.415-50.621
		l51.947,50.547L1908.396,89H1979.834z"/>
</g>
<g id="Layer_4">
	<path d="M3068.967,362l-187.336,432.069l-8.666,20.351c-25.788,51.256-74.45,90.58-116.675,97.58h-612.241l62.295-144h521.689
		c42.398-5,90.993-45.87,116.778-97.127l8.755-19.951L2978.534,362H3068.967z"/>
	<path d="M3015.061,88l-195.983,450.873c-25.788,51.256-74.294,93.127-116.69,96.127h-612.24l184.811-423.453
		c0,0,0,0.196-0.004,0.172l13.987-32.604C2317.465,127.198,2368.896,88,2411.34,88h401.795l-146.977,338.099l79.415-50.672
		l51.947,50.624L2943.623,88H3015.061z"/>
</g>
<g id="Layer_5">
</g>
<g id="Layer_6">
	<g>
	</g>
	<g>
	</g>
	<g>
	</g>
	<g>
	</g>
	<g>
	</g>
	<g>
	</g>
	<g>
	</g>
	<g>
	</g>
	<g>
	</g>
	<g>
	</g>
	<g>
	</g>
	<g>
	</g>
	<g>
	</g>
	<g>
	</g>
	<g>
	</g>
</g>
</svg>
